<svg width="190" height="61" viewBox="0 0 190 61" fill="none" xmlns="http://www.w3.org/2000/svg">
<path d="M0.583984 55.0103L1.74561 54.9087C1.80062 55.3742 1.92757 55.7572 2.12646 56.0576C2.32959 56.3538 2.64274 56.5951 3.06592 56.7812C3.4891 56.9632 3.96517 57.0542 4.49414 57.0542C4.96387 57.0542 5.37858 56.9844 5.73828 56.8447C6.09798 56.7051 6.36458 56.5146 6.53809 56.2734C6.71582 56.028 6.80469 55.7614 6.80469 55.4736C6.80469 55.1816 6.72005 54.9277 6.55078 54.7119C6.38151 54.4919 6.10221 54.3078 5.71289 54.1597C5.46322 54.0623 4.91097 53.9121 4.05615 53.709C3.20133 53.5016 2.60254 53.307 2.25977 53.125C1.81543 52.8923 1.48324 52.6045 1.26318 52.2617C1.04736 51.9147 0.939453 51.5275 0.939453 51.1001C0.939453 50.6304 1.07275 50.1924 1.33936 49.7861C1.60596 49.3757 1.99528 49.0646 2.50732 48.853C3.01937 48.6414 3.58854 48.5356 4.21484 48.5356C4.90462 48.5356 5.51188 48.6478 6.03662 48.8721C6.56559 49.0921 6.97184 49.418 7.25537 49.8496C7.5389 50.2812 7.69124 50.77 7.7124 51.3159L6.53174 51.4048C6.46826 50.8166 6.25244 50.3722 5.88428 50.0718C5.52035 49.7713 4.98079 49.6211 4.26562 49.6211C3.52083 49.6211 2.97705 49.7586 2.63428 50.0337C2.29574 50.3045 2.12646 50.6325 2.12646 51.0176C2.12646 51.3519 2.24707 51.627 2.48828 51.8428C2.72526 52.0586 3.3431 52.2808 4.3418 52.5093C5.34473 52.7336 6.03239 52.9303 6.40479 53.0996C6.94645 53.3493 7.34635 53.6667 7.60449 54.0518C7.86263 54.4326 7.9917 54.8727 7.9917 55.3721C7.9917 55.8672 7.84993 56.3348 7.56641 56.7749C7.28288 57.2108 6.87451 57.5514 6.34131 57.7969C5.81234 58.0381 5.21566 58.1587 4.55127 58.1587C3.70915 58.1587 3.00244 58.036 2.43115 57.7905C1.8641 57.5451 1.41764 57.1769 1.0918 56.686C0.770182 56.1909 0.600911 55.6323 0.583984 55.0103ZM10.8278 58V48.6943H11.9704V52.0332C12.5036 51.4154 13.1765 51.1064 13.989 51.1064C14.4883 51.1064 14.9221 51.2059 15.2902 51.4048C15.6584 51.5994 15.9208 51.8703 16.0773 52.2173C16.2382 52.5643 16.3186 53.0679 16.3186 53.728V58H15.176V53.728C15.176 53.1567 15.0511 52.742 14.8015 52.4839C14.556 52.2215 14.2069 52.0903 13.7541 52.0903C13.4156 52.0903 13.0961 52.1792 12.7956 52.3569C12.4994 52.5304 12.2878 52.7674 12.1608 53.0679C12.0339 53.3683 11.9704 53.783 11.9704 54.312V58H10.8278ZM23.9789 55.8291L25.1596 55.9751C24.9734 56.6649 24.6285 57.2002 24.1249 57.5811C23.6213 57.9619 22.9781 58.1523 22.1952 58.1523C21.2092 58.1523 20.4263 57.8498 19.8466 57.2446C19.2711 56.6353 18.9833 55.7826 18.9833 54.6865C18.9833 53.5524 19.2753 52.6722 19.8593 52.0459C20.4433 51.4196 21.2007 51.1064 22.1317 51.1064C23.0331 51.1064 23.7694 51.4132 24.3407 52.0269C24.912 52.6405 25.1977 53.5037 25.1977 54.6167C25.1977 54.6844 25.1955 54.786 25.1913 54.9214H20.164C20.2063 55.6619 20.4158 56.229 20.7924 56.6226C21.169 57.0161 21.6387 57.2129 22.2016 57.2129C22.6205 57.2129 22.9781 57.1029 23.2743 56.8828C23.5705 56.6628 23.8054 56.3115 23.9789 55.8291ZM20.2274 53.9819H23.9916C23.9408 53.4149 23.7969 52.9896 23.56 52.7061C23.196 52.266 22.7242 52.0459 22.1444 52.0459C21.6197 52.0459 21.1775 52.2215 20.8178 52.5728C20.4623 52.924 20.2655 53.3937 20.2274 53.9819ZM27.8751 58V48.6943H29.0177V58H27.8751ZM34.5896 56.978L34.7547 57.9873C34.4331 58.055 34.1453 58.0889 33.8914 58.0889C33.4767 58.0889 33.1551 58.0233 32.9266 57.8921C32.698 57.7609 32.5372 57.5895 32.4441 57.3779C32.351 57.1621 32.3045 56.7114 32.3045 56.0259V52.1475H31.4666V51.2588H32.3045V49.5894L33.4407 48.9038V51.2588H34.5896V52.1475H33.4407V56.0894C33.4407 56.4152 33.4598 56.6247 33.4979 56.7178C33.5402 56.8109 33.6058 56.8849 33.6946 56.9399C33.7877 56.995 33.9189 57.0225 34.0882 57.0225C34.2151 57.0225 34.3823 57.0076 34.5896 56.978ZM41.6279 55.8291L42.8086 55.9751C42.6224 56.6649 42.2775 57.2002 41.7739 57.5811C41.2703 57.9619 40.6271 58.1523 39.8442 58.1523C38.8582 58.1523 38.0754 57.8498 37.4956 57.2446C36.9201 56.6353 36.6323 55.7826 36.6323 54.6865C36.6323 53.5524 36.9243 52.6722 37.5083 52.0459C38.0923 51.4196 38.8498 51.1064 39.7808 51.1064C40.6821 51.1064 41.4185 51.4132 41.9897 52.0269C42.561 52.6405 42.8467 53.5037 42.8467 54.6167C42.8467 54.6844 42.8446 54.786 42.8403 54.9214H37.813C37.8553 55.6619 38.0648 56.229 38.4414 56.6226C38.818 57.0161 39.2878 57.2129 39.8506 57.2129C40.2695 57.2129 40.6271 57.1029 40.9233 56.8828C41.2196 56.6628 41.4544 56.3115 41.6279 55.8291ZM37.8765 53.9819H41.6406C41.5898 53.4149 41.446 52.9896 41.209 52.7061C40.8451 52.266 40.3732 52.0459 39.7935 52.0459C39.2687 52.0459 38.8265 52.2215 38.4668 52.5728C38.1113 52.924 37.9146 53.3937 37.8765 53.9819ZM45.5368 58V51.2588H46.5651V52.2808C46.8275 51.8026 47.0687 51.4873 47.2888 51.335C47.5131 51.1826 47.7585 51.1064 48.0251 51.1064C48.4102 51.1064 48.8016 51.2292 49.1994 51.4746L48.8059 52.5347C48.5266 52.3696 48.2473 52.2871 47.968 52.2871C47.7183 52.2871 47.494 52.3633 47.2951 52.5156C47.0962 52.6637 46.9545 52.8711 46.8698 53.1377C46.7429 53.5439 46.6794 53.9883 46.6794 54.4707V58H45.5368ZM56.3697 58V52.1475H55.3605V51.2588H56.3697V50.5415C56.3697 50.0887 56.4099 49.7523 56.4903 49.5322C56.6004 49.236 56.7929 48.9969 57.068 48.8149C57.3473 48.6287 57.7366 48.5356 58.2359 48.5356C58.5576 48.5356 58.913 48.5737 59.3023 48.6499L59.131 49.6465C58.894 49.6042 58.6697 49.583 58.4581 49.583C58.1111 49.583 57.8657 49.6571 57.7218 49.8052C57.5779 49.9533 57.506 50.2305 57.506 50.6367V51.2588H58.8199V52.1475H57.506V58H56.3697ZM60.5896 54.6294C60.5896 53.381 60.9367 52.4564 61.6307 51.8555C62.2104 51.3561 62.9171 51.1064 63.7508 51.1064C64.6775 51.1064 65.435 51.4111 66.0232 52.0205C66.6115 52.6257 66.9056 53.4635 66.9056 54.5342C66.9056 55.4017 66.7744 56.0851 66.512 56.5845C66.2539 57.0796 65.8751 57.4647 65.3758 57.7397C64.8807 58.0148 64.339 58.1523 63.7508 58.1523C62.8071 58.1523 62.0433 57.8498 61.4593 57.2446C60.8795 56.6395 60.5896 55.7677 60.5896 54.6294ZM61.764 54.6294C61.764 55.4927 61.9523 56.1401 62.3289 56.5718C62.7055 56.9992 63.1795 57.2129 63.7508 57.2129C64.3178 57.2129 64.7897 56.9971 65.1663 56.5654C65.5429 56.1338 65.7313 55.4757 65.7313 54.5913C65.7313 53.7576 65.5408 53.1271 65.16 52.6997C64.7833 52.2681 64.3136 52.0522 63.7508 52.0522C63.1795 52.0522 62.7055 52.266 62.3289 52.6934C61.9523 53.1208 61.764 53.7661 61.764 54.6294ZM69.5386 58V51.2588H70.5669V52.2808C70.8293 51.8026 71.0705 51.4873 71.2905 51.335C71.5148 51.1826 71.7603 51.1064 72.0269 51.1064C72.4119 51.1064 72.8034 51.2292 73.2012 51.4746L72.8076 52.5347C72.5283 52.3696 72.249 52.2871 71.9697 52.2871C71.7201 52.2871 71.4958 52.3633 71.2969 52.5156C71.098 52.6637 70.9562 52.8711 70.8716 53.1377C70.7446 53.5439 70.6812 53.9883 70.6812 54.4707V58H69.5386ZM80.0985 60.5835V51.2588H81.1395V52.1348C81.385 51.792 81.6622 51.536 81.9711 51.3667C82.28 51.1932 82.6545 51.1064 83.0946 51.1064C83.6701 51.1064 84.178 51.2546 84.6181 51.5508C85.0582 51.847 85.3904 52.266 85.6146 52.8076C85.8389 53.3451 85.9511 53.9354 85.9511 54.5786C85.9511 55.2684 85.8262 55.8905 85.5766 56.4448C85.3311 56.995 84.9714 57.4181 84.4975 57.7144C84.0277 58.0063 83.5326 58.1523 83.0121 58.1523C82.6312 58.1523 82.2885 58.0719 81.9838 57.9111C81.6833 57.7503 81.4358 57.5472 81.2411 57.3018V60.5835H80.0985ZM81.1332 54.6675C81.1332 55.535 81.3088 56.1761 81.6601 56.5908C82.0113 57.0055 82.4366 57.2129 82.9359 57.2129C83.4437 57.2129 83.8775 56.9992 84.2372 56.5718C84.6011 56.1401 84.7831 55.4736 84.7831 54.5723C84.7831 53.7132 84.6054 53.07 84.2499 52.6426C83.8987 52.2152 83.4776 52.0015 82.9867 52.0015C82.5001 52.0015 82.0684 52.23 81.6918 52.687C81.3194 53.1398 81.1332 53.8 81.1332 54.6675ZM93.2496 55.8291L94.4303 55.9751C94.2441 56.6649 93.8992 57.2002 93.3956 57.5811C92.892 57.9619 92.2488 58.1523 91.4659 58.1523C90.4799 58.1523 89.697 57.8498 89.1173 57.2446C88.5418 56.6353 88.254 55.7826 88.254 54.6865C88.254 53.5524 88.546 52.6722 89.13 52.0459C89.714 51.4196 90.4715 51.1064 91.4024 51.1064C92.3038 51.1064 93.0401 51.4132 93.6114 52.0269C94.1827 52.6405 94.4684 53.5037 94.4684 54.6167C94.4684 54.6844 94.4662 54.786 94.462 54.9214H89.4347C89.477 55.6619 89.6865 56.229 90.0631 56.6226C90.4397 57.0161 90.9094 57.2129 91.4723 57.2129C91.8912 57.2129 92.2488 57.1029 92.545 56.8828C92.8412 56.6628 93.0761 56.3115 93.2496 55.8291ZM89.4981 53.9819H93.2623C93.2115 53.4149 93.0676 52.9896 92.8307 52.7061C92.4667 52.266 91.9949 52.0459 91.4151 52.0459C90.8904 52.0459 90.4482 52.2215 90.0885 52.5728C89.733 52.924 89.5362 53.3937 89.4981 53.9819ZM99.6658 56.978L99.8309 57.9873C99.5092 58.055 99.2215 58.0889 98.9676 58.0889C98.5529 58.0889 98.2312 58.0233 98.0027 57.8921C97.7742 57.7609 97.6134 57.5895 97.5203 57.3779C97.4272 57.1621 97.3807 56.7114 97.3807 56.0259V52.1475H96.5428V51.2588H97.3807V49.5894L98.5169 48.9038V51.2588H99.6658V52.1475H98.5169V56.0894C98.5169 56.4152 98.5359 56.6247 98.574 56.7178C98.6163 56.8109 98.6819 56.8849 98.7708 56.9399C98.8639 56.995 98.9951 57.0225 99.1644 57.0225C99.2913 57.0225 99.4585 57.0076 99.6658 56.978ZM101.632 55.9878L102.762 55.8101C102.826 56.2629 103.001 56.6099 103.289 56.8511C103.581 57.0923 103.987 57.2129 104.508 57.2129C105.033 57.2129 105.422 57.1071 105.676 56.8955C105.93 56.6797 106.057 56.4279 106.057 56.1401C106.057 55.882 105.944 55.6789 105.72 55.5308C105.564 55.4292 105.174 55.3001 104.552 55.1436C103.714 54.932 103.132 54.75 102.807 54.5977C102.485 54.4411 102.24 54.2274 102.07 53.9565C101.905 53.6815 101.823 53.3789 101.823 53.0488C101.823 52.7484 101.89 52.4712 102.026 52.2173C102.166 51.9591 102.354 51.7454 102.591 51.5762C102.769 51.445 103.01 51.335 103.314 51.2461C103.623 51.153 103.953 51.1064 104.305 51.1064C104.834 51.1064 105.297 51.1826 105.695 51.335C106.097 51.4873 106.393 51.6947 106.583 51.957C106.774 52.2152 106.905 52.5622 106.977 52.998L105.86 53.1504C105.809 52.8034 105.661 52.5326 105.416 52.3379C105.174 52.1432 104.832 52.0459 104.387 52.0459C103.862 52.0459 103.488 52.1326 103.264 52.3062C103.039 52.4797 102.927 52.6828 102.927 52.9155C102.927 53.0636 102.974 53.1969 103.067 53.3154C103.16 53.4382 103.306 53.5397 103.505 53.6201C103.619 53.6624 103.956 53.7598 104.514 53.9121C105.322 54.1279 105.885 54.3057 106.203 54.4453C106.524 54.5807 106.776 54.7796 106.958 55.042C107.14 55.3044 107.231 55.6302 107.231 56.0195C107.231 56.4004 107.119 56.7601 106.895 57.0986C106.674 57.4329 106.355 57.6932 105.936 57.8794C105.517 58.0614 105.043 58.1523 104.514 58.1523C103.638 58.1523 102.97 57.9704 102.508 57.6064C102.051 57.2425 101.759 56.703 101.632 55.9878ZM114.814 50.0083V48.6943H115.956V50.0083H114.814ZM114.814 58V51.2588H115.956V58H114.814ZM119.002 58V51.2588H120.03V52.2173C120.525 51.4767 121.241 51.1064 122.176 51.1064C122.582 51.1064 122.955 51.1805 123.293 51.3286C123.636 51.4725 123.892 51.6629 124.061 51.8999C124.23 52.1369 124.349 52.4183 124.417 52.7441C124.459 52.9557 124.48 53.326 124.48 53.855V58H123.338V53.8994C123.338 53.4339 123.293 53.0869 123.204 52.8584C123.115 52.6257 122.957 52.4416 122.728 52.3062C122.504 52.1665 122.239 52.0967 121.935 52.0967C121.448 52.0967 121.027 52.2511 120.671 52.5601C120.32 52.869 120.145 53.4551 120.145 54.3184V58H119.002ZM132.552 58V48.6943H136.043C136.754 48.6943 137.323 48.7896 137.75 48.98C138.182 49.1662 138.519 49.4561 138.76 49.8496C139.005 50.2389 139.128 50.6473 139.128 51.0747C139.128 51.4725 139.02 51.847 138.804 52.1982C138.588 52.5495 138.263 52.833 137.827 53.0488C138.389 53.2139 138.821 53.4953 139.122 53.8931C139.426 54.2909 139.579 54.7606 139.579 55.3022C139.579 55.7381 139.486 56.1444 139.299 56.521C139.117 56.8934 138.891 57.1812 138.62 57.3843C138.349 57.5874 138.009 57.7419 137.598 57.8477C137.192 57.9492 136.693 58 136.1 58H132.552ZM133.783 52.6045H135.795C136.341 52.6045 136.733 52.5685 136.97 52.4966C137.283 52.4035 137.518 52.249 137.674 52.0332C137.835 51.8174 137.916 51.5465 137.916 51.2207C137.916 50.9118 137.841 50.641 137.693 50.4082C137.545 50.1712 137.334 50.0104 137.059 49.9258C136.784 49.8369 136.312 49.7925 135.643 49.7925H133.783V52.6045ZM133.783 56.9019H136.1C136.498 56.9019 136.777 56.887 136.938 56.8574C137.222 56.8066 137.458 56.722 137.649 56.6035C137.839 56.485 137.996 56.3136 138.119 56.0894C138.241 55.8608 138.303 55.5985 138.303 55.3022C138.303 54.9552 138.214 54.6548 138.036 54.4009C137.858 54.1427 137.611 53.9629 137.293 53.8613C136.98 53.7555 136.528 53.7026 135.935 53.7026H133.783V56.9019ZM142.002 54.6294C142.002 53.381 142.349 52.4564 143.043 51.8555C143.623 51.3561 144.33 51.1064 145.163 51.1064C146.09 51.1064 146.848 51.4111 147.436 52.0205C148.024 52.6257 148.318 53.4635 148.318 54.5342C148.318 55.4017 148.187 56.0851 147.925 56.5845C147.666 57.0796 147.288 57.4647 146.788 57.7397C146.293 58.0148 145.752 58.1523 145.163 58.1523C144.22 58.1523 143.456 57.8498 142.872 57.2446C142.292 56.6395 142.002 55.7677 142.002 54.6294ZM143.176 54.6294C143.176 55.4927 143.365 56.1401 143.741 56.5718C144.118 56.9992 144.592 57.2129 145.163 57.2129C145.73 57.2129 146.202 56.9971 146.579 56.5654C146.955 56.1338 147.144 55.4757 147.144 54.5913C147.144 53.7576 146.953 53.1271 146.572 52.6997C146.196 52.2681 145.726 52.0522 145.163 52.0522C144.592 52.0522 144.118 52.266 143.741 52.6934C143.365 53.1208 143.176 53.7661 143.176 54.6294ZM150.507 55.9878L151.637 55.8101C151.7 56.2629 151.876 56.6099 152.163 56.8511C152.455 57.0923 152.862 57.2129 153.382 57.2129C153.907 57.2129 154.296 57.1071 154.55 56.8955C154.804 56.6797 154.931 56.4279 154.931 56.1401C154.931 55.882 154.819 55.6789 154.595 55.5308C154.438 55.4292 154.049 55.3001 153.427 55.1436C152.589 54.932 152.007 54.75 151.681 54.5977C151.359 54.4411 151.114 54.2274 150.945 53.9565C150.78 53.6815 150.697 53.3789 150.697 53.0488C150.697 52.7484 150.765 52.4712 150.9 52.2173C151.04 51.9591 151.228 51.7454 151.465 51.5762C151.643 51.445 151.884 51.335 152.189 51.2461C152.498 51.153 152.828 51.1064 153.179 51.1064C153.708 51.1064 154.171 51.1826 154.569 51.335C154.971 51.4873 155.267 51.6947 155.458 51.957C155.648 52.2152 155.78 52.5622 155.851 52.998L154.734 53.1504C154.684 52.8034 154.535 52.5326 154.29 52.3379C154.049 52.1432 153.706 52.0459 153.262 52.0459C152.737 52.0459 152.362 52.1326 152.138 52.3062C151.914 52.4797 151.802 52.6828 151.802 52.9155C151.802 53.0636 151.848 53.1969 151.941 53.3154C152.034 53.4382 152.18 53.5397 152.379 53.6201C152.494 53.6624 152.83 53.7598 153.389 53.9121C154.197 54.1279 154.76 54.3057 155.077 54.4453C155.399 54.5807 155.65 54.7796 155.832 55.042C156.014 55.3044 156.105 55.6302 156.105 56.0195C156.105 56.4004 155.993 56.7601 155.769 57.0986C155.549 57.4329 155.229 57.6932 154.81 57.8794C154.392 58.0614 153.918 58.1523 153.389 58.1523C152.513 58.1523 151.844 57.9704 151.383 57.6064C150.926 57.2425 150.634 56.703 150.507 55.9878ZM161.258 56.978L161.423 57.9873C161.102 58.055 160.814 58.0889 160.56 58.0889C160.145 58.0889 159.824 58.0233 159.595 57.8921C159.367 57.7609 159.206 57.5895 159.113 57.3779C159.02 57.1621 158.973 56.7114 158.973 56.0259V52.1475H158.135V51.2588H158.973V49.5894L160.109 48.9038V51.2588H161.258V52.1475H160.109V56.0894C160.109 56.4152 160.129 56.6247 160.167 56.7178C160.209 56.8109 160.275 56.8849 160.363 56.9399C160.456 56.995 160.588 57.0225 160.757 57.0225C160.884 57.0225 161.051 57.0076 161.258 56.978ZM163.257 54.6294C163.257 53.381 163.604 52.4564 164.298 51.8555C164.877 51.3561 165.584 51.1064 166.418 51.1064C167.345 51.1064 168.102 51.4111 168.69 52.0205C169.278 52.6257 169.573 53.4635 169.573 54.5342C169.573 55.4017 169.441 56.0851 169.179 56.5845C168.921 57.0796 168.542 57.4647 168.043 57.7397C167.548 58.0148 167.006 58.1523 166.418 58.1523C165.474 58.1523 164.71 57.8498 164.126 57.2446C163.547 56.6395 163.257 55.7677 163.257 54.6294ZM164.431 54.6294C164.431 55.4927 164.619 56.1401 164.996 56.5718C165.373 56.9992 165.846 57.2129 166.418 57.2129C166.985 57.2129 167.457 56.9971 167.833 56.5654C168.21 56.1338 168.398 55.4757 168.398 54.5913C168.398 53.7576 168.208 53.1271 167.827 52.6997C167.45 52.2681 166.981 52.0522 166.418 52.0522C165.846 52.0522 165.373 52.266 164.996 52.6934C164.619 53.1208 164.431 53.7661 164.431 54.6294ZM172.218 58V51.2588H173.247V52.2173C173.742 51.4767 174.457 51.1064 175.392 51.1064C175.798 51.1064 176.171 51.1805 176.509 51.3286C176.852 51.4725 177.108 51.6629 177.277 51.8999C177.447 52.1369 177.565 52.4183 177.633 52.7441C177.675 52.9557 177.696 53.326 177.696 53.855V58H176.554V53.8994C176.554 53.4339 176.509 53.0869 176.42 52.8584C176.332 52.6257 176.173 52.4416 175.944 52.3062C175.72 52.1665 175.456 52.0967 175.151 52.0967C174.664 52.0967 174.243 52.2511 173.888 52.5601C173.536 52.869 173.361 53.4551 173.361 54.3184V58H172.218Z" fill="white"/>
<path d="M11.2969 29.5156C9.97396 29.5156 8.70312 29.2552 7.48438 28.7344C6.27604 28.2135 5.20312 27.4635 4.26562 26.4844C3.33854 25.5052 2.59896 24.3125 2.04688 22.9062C1.49479 21.4896 1.21875 19.8958 1.21875 18.125C1.21875 16.3542 1.48958 14.75 2.03125 13.3125C2.57292 11.8646 3.32292 10.6198 4.28125 9.57812C5.22917 8.54688 6.34896 7.75 7.64062 7.1875C8.93229 6.625 10.3125 6.34375 11.7812 6.34375C12.875 6.34375 13.8646 6.47917 14.75 6.75C15.6354 7.02083 16.4792 7.40104 17.2812 7.89062L17.9219 6.82812H19.1719L19.3125 14.7344H18.0312C17.8646 13.9635 17.6146 13.1302 17.2812 12.2344C16.9479 11.3281 16.5573 10.5625 16.1094 9.9375C15.6094 9.22917 15.0156 8.67708 14.3281 8.28125C13.6406 7.875 12.8542 7.67188 11.9688 7.67188C10.9583 7.67188 10.0156 7.89583 9.14062 8.34375C8.27604 8.79167 7.52604 9.45312 6.89062 10.3281C6.28646 11.1719 5.8125 12.2448 5.46875 13.5469C5.125 14.849 4.95312 16.3021 4.95312 17.9062C4.95312 19.3229 5.13021 20.625 5.48438 21.8125C5.84896 22.9896 6.36458 24.026 7.03125 24.9219C7.69792 25.8073 8.48438 26.5 9.39062 27C10.3073 27.5 11.3281 27.75 12.4531 27.75C13.2969 27.75 14.0729 27.6198 14.7812 27.3594C15.4896 27.0885 16.1042 26.7344 16.625 26.2969C17.1458 25.8385 17.6042 25.3177 18 24.7344C18.3958 24.151 18.7188 23.5156 18.9688 22.8281L20.1406 23.3906C19.2448 25.5885 18.0573 27.1615 16.5781 28.1094C15.099 29.0469 13.3385 29.5156 11.2969 29.5156ZM38.6231 21.1406C38.6231 22.224 38.4513 23.2917 38.1075 24.3438C37.7638 25.3854 37.2742 26.2708 36.6388 27C35.92 27.8333 35.0867 28.4531 34.1388 28.8594C33.1908 29.2656 32.1283 29.4688 30.9513 29.4688C29.9721 29.4688 29.0398 29.2865 28.1544 28.9219C27.269 28.5469 26.4825 28.0052 25.795 27.2969C25.1179 26.599 24.5763 25.75 24.17 24.75C23.7742 23.7396 23.5763 22.6094 23.5763 21.3594C23.5763 18.9531 24.2742 16.9844 25.67 15.4531C27.0763 13.9219 28.9148 13.1562 31.1856 13.1562C33.3419 13.1562 35.1179 13.8854 36.5138 15.3438C37.92 16.7917 38.6231 18.724 38.6231 21.1406ZM35.3888 21.1719C35.3888 20.3906 35.3106 19.5677 35.1544 18.7031C34.9981 17.8281 34.7638 17.0885 34.4513 16.4844C34.1179 15.8385 33.6804 15.3229 33.1388 14.9375C32.5971 14.5417 31.9356 14.3438 31.1544 14.3438C30.3523 14.3438 29.6648 14.5417 29.0919 14.9375C28.5294 15.3333 28.071 15.875 27.7169 16.5625C27.3835 17.1979 27.1492 17.9219 27.0138 18.7344C26.8783 19.5469 26.8106 20.3333 26.8106 21.0938C26.8106 22.0938 26.8888 23.0208 27.045 23.875C27.2117 24.7188 27.4721 25.474 27.8263 26.1406C28.1804 26.8073 28.6231 27.3333 29.1544 27.7188C29.696 28.0938 30.3627 28.2812 31.1544 28.2812C32.4565 28.2812 33.4877 27.651 34.2481 26.3906C35.0085 25.1302 35.3888 23.3906 35.3888 21.1719ZM54.9806 29H42.5119V28.1719L51.2306 14.8594H49.0744C48.1681 14.8594 47.4598 14.875 46.9494 14.9062C46.439 14.9375 45.9702 15.0417 45.5431 15.2188C45.2515 15.3333 44.9754 15.6615 44.715 16.2031C44.465 16.7448 44.2463 17.4531 44.0588 18.3281H43.1056V13.5938H54.8869V14.2344L46.0275 27.7344C46.4025 27.7448 46.814 27.7552 47.2619 27.7656C47.7098 27.7656 48.1942 27.7656 48.715 27.7656C49.1317 27.7656 49.564 27.7604 50.0119 27.75C50.4702 27.7396 51.0535 27.7135 51.7619 27.6719C52.1785 27.651 52.491 27.5104 52.6994 27.25C52.9181 26.9896 53.0848 26.6927 53.1994 26.3594C53.314 26.0573 53.4494 25.6406 53.6056 25.1094C53.7723 24.5781 53.9181 24.0625 54.0431 23.5625H54.9806V29ZM57.7444 34.0312C57.7444 33.5104 57.885 33.0833 58.1662 32.75C58.4579 32.4271 58.8173 32.2656 59.2444 32.2656C59.5777 32.2656 59.8642 32.3281 60.1037 32.4531C60.3433 32.5781 60.5569 32.7396 60.7444 32.9375C60.9006 33.0938 61.0673 33.3073 61.2444 33.5781C61.4215 33.849 61.5621 34.0729 61.6662 34.25C62.1871 33.9688 62.8069 33.2344 63.5256 32.0469C64.2548 30.8594 64.7808 29.8177 65.1037 28.9219C64.1142 26.4531 63.2183 24.2448 62.4162 22.2969C61.6142 20.349 60.7756 18.3333 59.9006 16.25C59.7027 15.7708 59.3694 15.401 58.9006 15.1406C58.4319 14.8698 57.9631 14.6979 57.4944 14.625V13.5938H64.5256V14.6875C64.2131 14.6979 63.8381 14.7656 63.4006 14.8906C62.9631 15.0052 62.7444 15.1406 62.7444 15.2969C62.7444 15.3594 62.7652 15.4635 62.8069 15.6094C62.859 15.7552 62.9162 15.9062 62.9787 16.0625C63.3746 17.0938 63.9787 18.5833 64.7912 20.5312C65.6037 22.4688 66.234 24.0208 66.6819 25.1875C67.1506 24.0729 67.635 22.9219 68.135 21.7344C68.6454 20.5365 69.2131 19.125 69.8381 17.5C69.911 17.3021 70.0152 17.0312 70.1506 16.6875C70.286 16.3333 70.3537 16.0312 70.3537 15.7812C70.3537 15.5104 70.1142 15.2604 69.635 15.0312C69.1662 14.7917 68.7183 14.6458 68.2912 14.5938V13.5938H74.01V14.5625C73.6975 14.6146 73.286 14.7969 72.7756 15.1094C72.2652 15.4115 71.885 15.8438 71.635 16.4062C70.3954 19.2812 69.2912 21.901 68.3225 24.2656C67.3642 26.6302 66.635 28.3698 66.135 29.4844C65.4787 30.9427 64.8902 32.0781 64.3694 32.8906C63.859 33.7135 63.359 34.3594 62.8694 34.8281C62.3902 35.2656 61.9527 35.5573 61.5569 35.7031C61.1715 35.8594 60.7704 35.9375 60.3537 35.9375C59.5412 35.9375 58.9006 35.7448 58.4319 35.3594C57.9735 34.974 57.7444 34.5312 57.7444 34.0312ZM109.584 29H100.381V27.8906C100.631 27.8698 100.991 27.8385 101.459 27.7969C101.939 27.7552 102.267 27.6927 102.444 27.6094C102.756 27.4844 102.985 27.2969 103.131 27.0469C103.277 26.7865 103.35 26.4531 103.35 26.0469V18.1562H92.9281V25.875C92.9281 26.2396 92.9854 26.5469 93.1 26.7969C93.225 27.0469 93.4646 27.2656 93.8187 27.4531C93.9958 27.5469 94.3083 27.6406 94.7562 27.7344C95.2146 27.8281 95.574 27.8802 95.8344 27.8906V29H86.6312V27.8906C86.8812 27.8698 87.2406 27.8385 87.7094 27.7969C88.1885 27.7552 88.5167 27.6927 88.6937 27.6094C89.0062 27.4844 89.2354 27.2969 89.3812 27.0469C89.5271 26.7865 89.6 26.4531 89.6 26.0469V10.0469C89.6 9.71354 89.5323 9.41146 89.3969 9.14062C89.2615 8.85938 89.0271 8.64062 88.6937 8.48438C88.4125 8.34896 88.0687 8.22917 87.6625 8.125C87.2667 8.02083 86.9229 7.95833 86.6312 7.9375V6.82812H95.8344V7.9375C95.5427 7.94792 95.1833 7.99479 94.7562 8.07812C94.3396 8.16146 94.0271 8.23958 93.8187 8.3125C93.4646 8.4375 93.225 8.64583 93.1 8.9375C92.9854 9.22917 92.9281 9.54688 92.9281 9.89062V16.7656H103.35V10.0469C103.35 9.71354 103.282 9.41146 103.147 9.14062C103.011 8.85938 102.777 8.64062 102.444 8.48438C102.162 8.34896 101.819 8.22917 101.412 8.125C101.017 8.02083 100.673 7.95833 100.381 7.9375V6.82812H109.584V7.9375C109.293 7.94792 108.933 7.99479 108.506 8.07812C108.09 8.16146 107.777 8.23958 107.569 8.3125C107.215 8.4375 106.975 8.64583 106.85 8.9375C106.735 9.22917 106.678 9.54688 106.678 9.89062V25.875C106.678 26.2396 106.735 26.5469 106.85 26.7969C106.975 27.0469 107.215 27.2656 107.569 27.4531C107.746 27.5469 108.058 27.6406 108.506 27.7344C108.965 27.8281 109.324 27.8802 109.584 27.8906V29ZM129.254 21.1406C129.254 22.224 129.082 23.2917 128.739 24.3438C128.395 25.3854 127.905 26.2708 127.27 27C126.551 27.8333 125.718 28.4531 124.77 28.8594C123.822 29.2656 122.76 29.4688 121.582 29.4688C120.603 29.4688 119.671 29.2865 118.786 28.9219C117.9 28.5469 117.114 28.0052 116.426 27.2969C115.749 26.599 115.207 25.75 114.801 24.75C114.405 23.7396 114.207 22.6094 114.207 21.3594C114.207 18.9531 114.905 16.9844 116.301 15.4531C117.707 13.9219 119.546 13.1562 121.817 13.1562C123.973 13.1562 125.749 13.8854 127.145 15.3438C128.551 16.7917 129.254 18.724 129.254 21.1406ZM126.02 21.1719C126.02 20.3906 125.942 19.5677 125.786 18.7031C125.629 17.8281 125.395 17.0885 125.082 16.4844C124.749 15.8385 124.312 15.3229 123.77 14.9375C123.228 14.5417 122.567 14.3438 121.786 14.3438C120.984 14.3438 120.296 14.5417 119.723 14.9375C119.161 15.3333 118.702 15.875 118.348 16.5625C118.015 17.1979 117.78 17.9219 117.645 18.7344C117.51 19.5469 117.442 20.3333 117.442 21.0938C117.442 22.0938 117.52 23.0208 117.676 23.875C117.843 24.7188 118.103 25.474 118.457 26.1406C118.812 26.8073 119.254 27.3333 119.786 27.7188C120.327 28.0938 120.994 28.2812 121.786 28.2812C123.088 28.2812 124.119 27.651 124.879 26.3906C125.64 25.1302 126.02 23.3906 126.02 21.1719ZM149.924 28.7188L144.909 29.0625L144.674 28.8438V26.8906H144.581C144.331 27.151 144.049 27.4323 143.737 27.7344C143.424 28.026 143.065 28.2917 142.659 28.5312C142.19 28.8125 141.737 29.026 141.299 29.1719C140.862 29.3177 140.242 29.3906 139.44 29.3906C138.075 29.3906 137.034 28.9479 136.315 28.0625C135.607 27.1667 135.253 25.8698 135.253 24.1719V16.7969C135.253 16.4219 135.18 16.1094 135.034 15.8594C134.898 15.599 134.695 15.375 134.424 15.1875C134.237 15.0625 134.003 14.974 133.721 14.9219C133.44 14.8594 133.143 14.8177 132.831 14.7969V13.7812L137.971 13.4062L138.206 13.625V24.3281C138.206 25.4427 138.456 26.2812 138.956 26.8438C139.456 27.4062 140.055 27.6875 140.753 27.6875C141.325 27.6875 141.836 27.599 142.284 27.4219C142.732 27.2448 143.107 27.0365 143.409 26.7969C143.69 26.5781 143.935 26.349 144.143 26.1094C144.362 25.8594 144.529 25.6302 144.643 25.4219V16.6875C144.643 16.3438 144.57 16.0417 144.424 15.7812C144.279 15.5104 144.075 15.2812 143.815 15.0938C143.628 14.9688 143.346 14.8958 142.971 14.875C142.607 14.8438 142.195 14.8177 141.737 14.7969V13.7812L147.331 13.4062L147.565 13.625V25.8594C147.565 26.2135 147.638 26.5156 147.784 26.7656C147.93 27.0156 148.133 27.2292 148.393 27.4062C148.581 27.5208 148.805 27.599 149.065 27.6406C149.325 27.6719 149.612 27.6927 149.924 27.7031V28.7188ZM163.907 21.4531C164.334 21.8281 164.662 22.2604 164.891 22.75C165.12 23.2396 165.235 23.8385 165.235 24.5469C165.235 25.974 164.699 27.1406 163.626 28.0469C162.563 28.9531 161.183 29.4062 159.485 29.4062C158.589 29.4062 157.761 29.2448 157.001 28.9219C156.251 28.599 155.714 28.3021 155.391 28.0312L155.079 29.0469H153.907L153.751 23.6875H154.829C154.912 24.0938 155.089 24.5677 155.36 25.1094C155.631 25.651 155.959 26.1406 156.344 26.5781C156.751 27.0365 157.235 27.4219 157.798 27.7344C158.37 28.0469 159.011 28.2031 159.719 28.2031C160.719 28.2031 161.49 27.9792 162.032 27.5312C162.574 27.0729 162.844 26.4219 162.844 25.5781C162.844 25.1406 162.756 24.7656 162.579 24.4531C162.412 24.1302 162.162 23.849 161.829 23.6094C161.485 23.3698 161.063 23.1562 160.563 22.9688C160.063 22.7708 159.506 22.5781 158.891 22.3906C158.402 22.2448 157.855 22.0469 157.251 21.7969C156.657 21.5365 156.146 21.2344 155.719 20.8906C155.261 20.526 154.886 20.0781 154.594 19.5469C154.303 19.0156 154.157 18.3906 154.157 17.6719C154.157 16.4115 154.626 15.3438 155.563 14.4688C156.501 13.5938 157.756 13.1562 159.329 13.1562C159.933 13.1562 160.548 13.2344 161.173 13.3906C161.808 13.5469 162.324 13.7344 162.719 13.9531L163.079 13.1406H164.204L164.438 18.0938H163.36C163.141 16.9896 162.667 16.0938 161.938 15.4062C161.219 14.7083 160.339 14.3594 159.298 14.3594C158.443 14.3594 157.771 14.5729 157.282 15C156.792 15.4271 156.548 15.9427 156.548 16.5469C156.548 17.0156 156.626 17.4062 156.782 17.7188C156.949 18.0312 157.193 18.2969 157.516 18.5156C157.829 18.724 158.219 18.9219 158.688 19.1094C159.167 19.2865 159.756 19.4896 160.454 19.7188C161.141 19.9375 161.787 20.1927 162.391 20.4844C163.006 20.776 163.511 21.099 163.907 21.4531ZM183.186 25.375C182.54 26.6042 181.676 27.5833 180.592 28.3125C179.509 29.0417 178.264 29.4062 176.858 29.4062C175.619 29.4062 174.53 29.1875 173.592 28.75C172.665 28.3125 171.9 27.7188 171.296 26.9688C170.691 26.2188 170.238 25.3438 169.936 24.3438C169.645 23.3438 169.499 22.2865 169.499 21.1719C169.499 20.1719 169.655 19.1927 169.967 18.2344C170.29 17.2656 170.759 16.3958 171.374 15.625C171.967 14.8854 172.702 14.2917 173.577 13.8438C174.462 13.3854 175.452 13.1562 176.546 13.1562C177.671 13.1562 178.634 13.3333 179.436 13.6875C180.238 14.0417 180.889 14.526 181.389 15.1406C181.869 15.724 182.223 16.4115 182.452 17.2031C182.691 17.9948 182.811 18.8542 182.811 19.7812V20.8125H172.608C172.608 21.8229 172.702 22.7396 172.889 23.5625C173.087 24.3854 173.395 25.1094 173.811 25.7344C174.217 26.3385 174.749 26.8177 175.405 27.1719C176.061 27.5156 176.842 27.6875 177.749 27.6875C178.676 27.6875 179.473 27.474 180.139 27.0469C180.816 26.6094 181.467 25.8281 182.092 24.7031L183.186 25.375ZM179.733 19.5C179.733 18.9167 179.681 18.2917 179.577 17.625C179.483 16.9583 179.327 16.401 179.108 15.9531C178.869 15.474 178.54 15.0833 178.124 14.7812C177.707 14.4792 177.171 14.3281 176.514 14.3281C175.421 14.3281 174.509 14.7865 173.78 15.7031C173.061 16.6094 172.671 17.875 172.608 19.5H179.733Z" fill="#F1CDB3"/>
</svg>
