<svg width="22" height="32" viewBox="0 0 22 32" fill="none" xmlns="http://www.w3.org/2000/svg">
<path d="M11 0C4.93471 0 0 4.78519 0 10.6667C0 12.4323 0.455231 14.1829 1.32064 15.7357L10.3985 31.6562C10.5193 31.8685 10.7496 32 11 32C11.2504 32 11.4807 31.8685 11.6015 31.6562L20.6827 15.7304C21.5448 14.1829 22 12.4323 22 10.6666C22 4.78519 17.0653 0 11 0ZM19.4762 15.0905L11 29.9557L2.52714 15.0964C1.77317 13.7435 1.37504 12.2116 1.37504 10.6667C1.37504 5.52019 5.69275 1.33337 11 1.33337C16.3073 1.33337 20.625 5.52025 20.625 10.6667C20.625 12.2116 20.2268 13.7435 19.4762 15.0905Z" fill="#F1CDB3"/>
<path d="M11 5.33329C7.96737 5.33329 5.50005 7.72585 5.50005 10.6666C5.50005 13.6074 7.96737 16 11 16C14.0327 16 16.5 13.6074 16.5 10.6667C16.5 7.72592 14.0327 5.33329 11 5.33329ZM11 14.6667C8.72534 14.6667 6.87502 12.8724 6.87502 10.6667C6.87502 8.46092 8.72534 6.66667 11 6.66667C13.2747 6.66667 15.125 8.46092 15.125 10.6667C15.125 12.8724 13.2747 14.6667 11 14.6667Z" fill="#F1CDB3"/>
</svg>
