<svg width="40" height="32" viewBox="0 0 40 32" fill="none" xmlns="http://www.w3.org/2000/svg">
<path d="M39.3151 3H0.684995C0.503331 3 0.329108 3.07325 0.200652 3.20362C0.0721962 3.334 3.05176e-05 3.51084 3.05176e-05 3.69522V28.3048C3.05176e-05 28.4892 0.0721962 28.666 0.200652 28.7964C0.329108 28.9268 0.503331 29 0.684995 29H39.3151C39.4967 29 39.671 28.9268 39.7994 28.7964C39.9279 28.666 40 28.4892 40 28.3048V3.69522C40 3.51084 39.9279 3.334 39.7994 3.20362C39.671 3.07325 39.4967 3 39.3151 3ZM32.5775 18.0331C32.6846 18.5259 32.7954 19.0355 32.6514 19.2882C32.4967 19.5596 31.9966 19.7173 31.5131 19.8699C31.1317 19.9902 30.7373 20.1147 30.3858 20.3212C30.0461 20.5206 29.7523 20.8001 29.4683 21.0704C29.0772 21.4426 28.7079 21.794 28.374 21.794C28.04 21.794 27.6707 21.4425 27.2797 21.0704C26.9957 20.8001 26.7019 20.5205 26.3622 20.3212C26.0107 20.1147 25.6163 19.9903 25.2348 19.8699C24.7514 19.7173 24.2513 19.5596 24.0967 19.2882C23.9526 19.0355 24.0634 18.5259 24.1705 18.0331C24.2585 17.6285 24.3493 17.2103 24.3493 16.7821C24.3493 16.354 24.2585 15.9356 24.1705 15.5311C24.0634 15.0383 23.9526 14.5288 24.0967 14.2759C24.2513 14.0046 24.7514 13.8468 25.2348 13.6942C25.6163 13.5739 26.0107 13.4494 26.3622 13.243C26.7019 13.0435 26.9957 12.764 27.2797 12.4937C27.6707 12.1216 28.04 11.7701 28.374 11.7701C28.7079 11.7701 29.0773 12.1216 29.4683 12.4937C29.7523 12.764 30.0461 13.0435 30.3858 13.243C30.7373 13.4493 31.1317 13.5738 31.5131 13.6941C31.9966 13.8467 32.4967 14.0045 32.6513 14.2758C32.7954 14.5286 32.6846 15.0381 32.5775 15.5309C32.4895 15.9354 32.3987 16.3537 32.3987 16.7819C32.3987 17.2102 32.4895 17.6286 32.5775 18.0331ZM30.5976 11.6608C30.5346 11.6024 30.4705 11.5416 30.4053 11.4795C29.8904 10.9896 29.2497 10.3798 28.374 10.3798C27.4982 10.3798 26.8575 10.9896 26.3427 11.4795C26.1046 11.7061 25.8796 11.9201 25.6761 12.0396C25.4574 12.168 25.1518 12.2645 24.8282 12.3666C24.1276 12.5876 23.3337 12.8381 22.9109 13.5797C22.5001 14.3004 22.6768 15.1134 22.8328 15.8307C22.9082 16.1777 22.9794 16.5055 22.9794 16.7821C22.9794 17.0587 22.9082 17.3866 22.8328 17.7336C22.6976 18.3556 22.5473 19.0496 22.7776 19.693L19.9997 22.5464L2.32453 4.39044H37.6748L30.5976 11.6608ZM11.7007 16L1.36996 26.6116V5.38812L11.7007 16ZM12.6636 16.989L19.5124 24.0242C19.5761 24.0896 19.652 24.1416 19.7356 24.177C19.8192 24.2125 19.909 24.2308 19.9996 24.2308C20.0903 24.2308 20.18 24.2125 20.2636 24.177C20.3473 24.1416 20.4231 24.0896 20.4869 24.0242L23.6842 20.7398C24.044 20.9494 24.4495 21.0781 24.8282 21.1976C25.1518 21.2997 25.4575 21.3962 25.6761 21.5245C25.8796 21.644 26.1045 21.8581 26.3427 22.0846C26.8575 22.5746 27.4982 23.1844 28.374 23.1844C29.2496 23.1844 29.8904 22.5746 30.4053 22.0846C30.6434 21.858 30.8683 21.644 31.0718 21.5244C31.2044 21.4466 31.3691 21.3806 31.5502 21.3179L37.675 27.6094H2.32434L12.6636 16.989ZM32.9664 20.7946C33.3118 20.6108 33.6224 20.3612 33.8371 19.9846C34.2479 19.2639 34.0712 18.4508 33.9152 17.7336C33.8398 17.3866 33.7686 17.0587 33.7686 16.7821C33.7686 16.5055 33.8398 16.1777 33.9152 15.8307C34.0712 15.1134 34.2479 14.3005 33.837 13.5797C33.4142 12.8381 32.6203 12.5876 31.9197 12.3666L31.8559 12.3463L38.6301 5.38738V26.6122L32.9664 20.7946Z" fill="#F1CDB3"/>
<path d="M28.374 13.2424C26.451 13.2424 24.8865 14.8302 24.8865 16.782C24.8865 18.7337 26.451 20.3215 28.374 20.3215C30.297 20.3215 31.8615 18.7337 31.8615 16.782C31.8615 14.8302 30.2969 13.2424 28.374 13.2424ZM28.374 18.9311C27.2065 18.9311 26.2565 17.967 26.2565 16.782C26.2565 15.5969 27.2064 14.6328 28.374 14.6328C29.5416 14.6328 30.4916 15.5969 30.4916 16.782C30.4916 17.967 29.5415 18.9311 28.374 18.9311Z" fill="#F1CDB3"/>
</svg>
