<svg width="184" height="60" viewBox="0 0 184 60" fill="none" xmlns="http://www.w3.org/2000/svg">
<path d="M4.58398 54.0103L5.74561 53.9087C5.80062 54.3742 5.92757 54.7572 6.12646 55.0576C6.32959 55.3538 6.64274 55.5951 7.06592 55.7812C7.4891 55.9632 7.96517 56.0542 8.49414 56.0542C8.96387 56.0542 9.37858 55.9844 9.73828 55.8447C10.098 55.7051 10.3646 55.5146 10.5381 55.2734C10.7158 55.028 10.8047 54.7614 10.8047 54.4736C10.8047 54.1816 10.7201 53.9277 10.5508 53.7119C10.3815 53.4919 10.1022 53.3078 9.71289 53.1597C9.46322 53.0623 8.91097 52.9121 8.05615 52.709C7.20133 52.5016 6.60254 52.307 6.25977 52.125C5.81543 51.8923 5.48324 51.6045 5.26318 51.2617C5.04736 50.9147 4.93945 50.5275 4.93945 50.1001C4.93945 49.6304 5.07275 49.1924 5.33936 48.7861C5.60596 48.3757 5.99528 48.0646 6.50732 47.853C7.01937 47.6414 7.58854 47.5356 8.21484 47.5356C8.90462 47.5356 9.51188 47.6478 10.0366 47.8721C10.5656 48.0921 10.9718 48.418 11.2554 48.8496C11.5389 49.2812 11.6912 49.77 11.7124 50.3159L10.5317 50.4048C10.4683 49.8166 10.2524 49.3722 9.88428 49.0718C9.52035 48.7713 8.98079 48.6211 8.26562 48.6211C7.52083 48.6211 6.97705 48.7586 6.63428 49.0337C6.29574 49.3045 6.12646 49.6325 6.12646 50.0176C6.12646 50.3519 6.24707 50.627 6.48828 50.8428C6.72526 51.0586 7.3431 51.2808 8.3418 51.5093C9.34473 51.7336 10.0324 51.9303 10.4048 52.0996C10.9465 52.3493 11.3464 52.6667 11.6045 53.0518C11.8626 53.4326 11.9917 53.8727 11.9917 54.3721C11.9917 54.8672 11.8499 55.3348 11.5664 55.7749C11.2829 56.2108 10.8745 56.5514 10.3413 56.7969C9.81234 57.0381 9.21566 57.1587 8.55127 57.1587C7.70915 57.1587 7.00244 57.036 6.43115 56.7905C5.8641 56.5451 5.41764 56.1769 5.0918 55.686C4.77018 55.1909 4.60091 54.6323 4.58398 54.0103ZM14.8278 57V47.6943H15.9704V51.0332C16.5036 50.4154 17.1765 50.1064 17.989 50.1064C18.4883 50.1064 18.9221 50.2059 19.2902 50.4048C19.6584 50.5994 19.9208 50.8703 20.0773 51.2173C20.2382 51.5643 20.3186 52.0679 20.3186 52.728V57H19.176V52.728C19.176 52.1567 19.0511 51.742 18.8015 51.4839C18.556 51.2215 18.2069 51.0903 17.7541 51.0903C17.4156 51.0903 17.0961 51.1792 16.7956 51.3569C16.4994 51.5304 16.2878 51.7674 16.1608 52.0679C16.0339 52.3683 15.9704 52.783 15.9704 53.312V57H14.8278ZM27.9789 54.8291L29.1596 54.9751C28.9734 55.6649 28.6285 56.2002 28.1249 56.5811C27.6213 56.9619 26.9781 57.1523 26.1952 57.1523C25.2092 57.1523 24.4263 56.8498 23.8466 56.2446C23.2711 55.6353 22.9833 54.7826 22.9833 53.6865C22.9833 52.5524 23.2753 51.6722 23.8593 51.0459C24.4433 50.4196 25.2007 50.1064 26.1317 50.1064C27.0331 50.1064 27.7694 50.4132 28.3407 51.0269C28.912 51.6405 29.1977 52.5037 29.1977 53.6167C29.1977 53.6844 29.1955 53.786 29.1913 53.9214H24.164C24.2063 54.6619 24.4158 55.229 24.7924 55.6226C25.169 56.0161 25.6387 56.2129 26.2016 56.2129C26.6205 56.2129 26.9781 56.1029 27.2743 55.8828C27.5705 55.6628 27.8054 55.3115 27.9789 54.8291ZM24.2274 52.9819H27.9916C27.9408 52.4149 27.7969 51.9896 27.56 51.7061C27.196 51.266 26.7242 51.0459 26.1444 51.0459C25.6197 51.0459 25.1775 51.2215 24.8178 51.5728C24.4623 51.924 24.2655 52.3937 24.2274 52.9819ZM31.8751 57V47.6943H33.0177V57H31.8751ZM38.5896 55.978L38.7547 56.9873C38.4331 57.055 38.1453 57.0889 37.8914 57.0889C37.4767 57.0889 37.1551 57.0233 36.9266 56.8921C36.698 56.7609 36.5372 56.5895 36.4441 56.3779C36.351 56.1621 36.3045 55.7114 36.3045 55.0259V51.1475H35.4666V50.2588H36.3045V48.5894L37.4407 47.9038V50.2588H38.5896V51.1475H37.4407V55.0894C37.4407 55.4152 37.4598 55.6247 37.4979 55.7178C37.5402 55.8109 37.6058 55.8849 37.6946 55.9399C37.7877 55.995 37.9189 56.0225 38.0882 56.0225C38.2151 56.0225 38.3823 56.0076 38.5896 55.978ZM45.6279 54.8291L46.8086 54.9751C46.6224 55.6649 46.2775 56.2002 45.7739 56.5811C45.2703 56.9619 44.6271 57.1523 43.8442 57.1523C42.8582 57.1523 42.0754 56.8498 41.4956 56.2446C40.9201 55.6353 40.6323 54.7826 40.6323 53.6865C40.6323 52.5524 40.9243 51.6722 41.5083 51.0459C42.0923 50.4196 42.8498 50.1064 43.7808 50.1064C44.6821 50.1064 45.4185 50.4132 45.9897 51.0269C46.561 51.6405 46.8467 52.5037 46.8467 53.6167C46.8467 53.6844 46.8446 53.786 46.8403 53.9214H41.813C41.8553 54.6619 42.0648 55.229 42.4414 55.6226C42.818 56.0161 43.2878 56.2129 43.8506 56.2129C44.2695 56.2129 44.6271 56.1029 44.9233 55.8828C45.2196 55.6628 45.4544 55.3115 45.6279 54.8291ZM41.8765 52.9819H45.6406C45.5898 52.4149 45.446 51.9896 45.209 51.7061C44.8451 51.266 44.3732 51.0459 43.7935 51.0459C43.2687 51.0459 42.8265 51.2215 42.4668 51.5728C42.1113 51.924 41.9146 52.3937 41.8765 52.9819ZM49.5368 57V50.2588H50.5651V51.2808C50.8275 50.8026 51.0687 50.4873 51.2888 50.335C51.5131 50.1826 51.7585 50.1064 52.0251 50.1064C52.4102 50.1064 52.8016 50.2292 53.1994 50.4746L52.8059 51.5347C52.5266 51.3696 52.2473 51.2871 51.968 51.2871C51.7183 51.2871 51.494 51.3633 51.2951 51.5156C51.0962 51.6637 50.9545 51.8711 50.8698 52.1377C50.7429 52.5439 50.6794 52.9883 50.6794 53.4707V57H49.5368ZM60.3697 57V51.1475H59.3605V50.2588H60.3697V49.5415C60.3697 49.0887 60.4099 48.7523 60.4903 48.5322C60.6004 48.236 60.7929 47.9969 61.068 47.8149C61.3473 47.6287 61.7366 47.5356 62.2359 47.5356C62.5576 47.5356 62.913 47.5737 63.3023 47.6499L63.131 48.6465C62.894 48.6042 62.6697 48.583 62.4581 48.583C62.1111 48.583 61.8657 48.6571 61.7218 48.8052C61.5779 48.9533 61.506 49.2305 61.506 49.6367V50.2588H62.8199V51.1475H61.506V57H60.3697ZM64.5896 53.6294C64.5896 52.381 64.9367 51.4564 65.6307 50.8555C66.2104 50.3561 66.9171 50.1064 67.7508 50.1064C68.6775 50.1064 69.435 50.4111 70.0232 51.0205C70.6115 51.6257 70.9056 52.4635 70.9056 53.5342C70.9056 54.4017 70.7744 55.0851 70.512 55.5845C70.2539 56.0796 69.8751 56.4647 69.3758 56.7397C68.8807 57.0148 68.339 57.1523 67.7508 57.1523C66.8071 57.1523 66.0433 56.8498 65.4593 56.2446C64.8795 55.6395 64.5896 54.7677 64.5896 53.6294ZM65.764 53.6294C65.764 54.4927 65.9523 55.1401 66.3289 55.5718C66.7055 55.9992 67.1795 56.2129 67.7508 56.2129C68.3178 56.2129 68.7897 55.9971 69.1663 55.5654C69.5429 55.1338 69.7313 54.4757 69.7313 53.5913C69.7313 52.7576 69.5408 52.1271 69.16 51.6997C68.7833 51.2681 68.3136 51.0522 67.7508 51.0522C67.1795 51.0522 66.7055 51.266 66.3289 51.6934C65.9523 52.1208 65.764 52.7661 65.764 53.6294ZM73.5386 57V50.2588H74.5669V51.2808C74.8293 50.8026 75.0705 50.4873 75.2905 50.335C75.5148 50.1826 75.7603 50.1064 76.0269 50.1064C76.4119 50.1064 76.8034 50.2292 77.2012 50.4746L76.8076 51.5347C76.5283 51.3696 76.249 51.2871 75.9697 51.2871C75.7201 51.2871 75.4958 51.3633 75.2969 51.5156C75.098 51.6637 74.9562 51.8711 74.8716 52.1377C74.7446 52.5439 74.6812 52.9883 74.6812 53.4707V57H73.5386ZM84.0985 59.5835V50.2588H85.1395V51.1348C85.385 50.792 85.6622 50.536 85.9711 50.3667C86.28 50.1932 86.6545 50.1064 87.0946 50.1064C87.6701 50.1064 88.178 50.2546 88.6181 50.5508C89.0582 50.847 89.3904 51.266 89.6146 51.8076C89.8389 52.3451 89.9511 52.9354 89.9511 53.5786C89.9511 54.2684 89.8262 54.8905 89.5766 55.4448C89.3311 55.995 88.9714 56.4181 88.4975 56.7144C88.0277 57.0063 87.5326 57.1523 87.0121 57.1523C86.6312 57.1523 86.2885 57.0719 85.9838 56.9111C85.6833 56.7503 85.4358 56.5472 85.2411 56.3018V59.5835H84.0985ZM85.1332 53.6675C85.1332 54.535 85.3088 55.1761 85.6601 55.5908C86.0113 56.0055 86.4366 56.2129 86.9359 56.2129C87.4437 56.2129 87.8775 55.9992 88.2372 55.5718C88.6011 55.1401 88.7831 54.4736 88.7831 53.5723C88.7831 52.7132 88.6054 52.07 88.2499 51.6426C87.8987 51.2152 87.4776 51.0015 86.9867 51.0015C86.5001 51.0015 86.0684 51.23 85.6918 51.687C85.3194 52.1398 85.1332 52.8 85.1332 53.6675ZM97.2496 54.8291L98.4303 54.9751C98.2441 55.6649 97.8992 56.2002 97.3956 56.5811C96.892 56.9619 96.2488 57.1523 95.4659 57.1523C94.4799 57.1523 93.697 56.8498 93.1173 56.2446C92.5418 55.6353 92.254 54.7826 92.254 53.6865C92.254 52.5524 92.546 51.6722 93.13 51.0459C93.714 50.4196 94.4715 50.1064 95.4024 50.1064C96.3038 50.1064 97.0401 50.4132 97.6114 51.0269C98.1827 51.6405 98.4684 52.5037 98.4684 53.6167C98.4684 53.6844 98.4662 53.786 98.462 53.9214H93.4347C93.477 54.6619 93.6865 55.229 94.0631 55.6226C94.4397 56.0161 94.9094 56.2129 95.4723 56.2129C95.8912 56.2129 96.2488 56.1029 96.545 55.8828C96.8412 55.6628 97.0761 55.3115 97.2496 54.8291ZM93.4981 52.9819H97.2623C97.2115 52.4149 97.0676 51.9896 96.8307 51.7061C96.4667 51.266 95.9949 51.0459 95.4151 51.0459C94.8904 51.0459 94.4482 51.2215 94.0885 51.5728C93.733 51.924 93.5362 52.3937 93.4981 52.9819ZM103.666 55.978L103.831 56.9873C103.509 57.055 103.221 57.0889 102.968 57.0889C102.553 57.0889 102.231 57.0233 102.003 56.8921C101.774 56.7609 101.613 56.5895 101.52 56.3779C101.427 56.1621 101.381 55.7114 101.381 55.0259V51.1475H100.543V50.2588H101.381V48.5894L102.517 47.9038V50.2588H103.666V51.1475H102.517V55.0894C102.517 55.4152 102.536 55.6247 102.574 55.7178C102.616 55.8109 102.682 55.8849 102.771 55.9399C102.864 55.995 102.995 56.0225 103.164 56.0225C103.291 56.0225 103.458 56.0076 103.666 55.978ZM105.632 54.9878L106.762 54.8101C106.826 55.2629 107.001 55.6099 107.289 55.8511C107.581 56.0923 107.987 56.2129 108.508 56.2129C109.033 56.2129 109.422 56.1071 109.676 55.8955C109.93 55.6797 110.057 55.4279 110.057 55.1401C110.057 54.882 109.944 54.6789 109.72 54.5308C109.564 54.4292 109.174 54.3001 108.552 54.1436C107.714 53.932 107.132 53.75 106.807 53.5977C106.485 53.4411 106.24 53.2274 106.07 52.9565C105.905 52.6815 105.823 52.3789 105.823 52.0488C105.823 51.7484 105.89 51.4712 106.026 51.2173C106.166 50.9591 106.354 50.7454 106.591 50.5762C106.769 50.445 107.01 50.335 107.314 50.2461C107.623 50.153 107.953 50.1064 108.305 50.1064C108.834 50.1064 109.297 50.1826 109.695 50.335C110.097 50.4873 110.393 50.6947 110.583 50.957C110.774 51.2152 110.905 51.5622 110.977 51.998L109.86 52.1504C109.809 51.8034 109.661 51.5326 109.416 51.3379C109.174 51.1432 108.832 51.0459 108.387 51.0459C107.862 51.0459 107.488 51.1326 107.264 51.3062C107.039 51.4797 106.927 51.6828 106.927 51.9155C106.927 52.0636 106.974 52.1969 107.067 52.3154C107.16 52.4382 107.306 52.5397 107.505 52.6201C107.619 52.6624 107.956 52.7598 108.514 52.9121C109.322 53.1279 109.885 53.3057 110.203 53.4453C110.524 53.5807 110.776 53.7796 110.958 54.042C111.14 54.3044 111.231 54.6302 111.231 55.0195C111.231 55.4004 111.119 55.7601 110.895 56.0986C110.674 56.4329 110.355 56.6932 109.936 56.8794C109.517 57.0614 109.043 57.1523 108.514 57.1523C107.638 57.1523 106.97 56.9704 106.508 56.6064C106.051 56.2425 105.759 55.703 105.632 54.9878ZM118.814 49.0083V47.6943H119.956V49.0083H118.814ZM118.814 57V50.2588H119.956V57H118.814ZM123.002 57V50.2588H124.03V51.2173C124.525 50.4767 125.241 50.1064 126.176 50.1064C126.582 50.1064 126.955 50.1805 127.293 50.3286C127.636 50.4725 127.892 50.6629 128.061 50.8999C128.23 51.1369 128.349 51.4183 128.417 51.7441C128.459 51.9557 128.48 52.326 128.48 52.855V57H127.338V52.8994C127.338 52.4339 127.293 52.0869 127.204 51.8584C127.115 51.6257 126.957 51.4416 126.728 51.3062C126.504 51.1665 126.239 51.0967 125.935 51.0967C125.448 51.0967 125.027 51.2511 124.671 51.5601C124.32 51.869 124.145 52.4551 124.145 53.3184V57H123.002ZM136.552 57V47.6943H140.043C140.754 47.6943 141.323 47.7896 141.75 47.98C142.182 48.1662 142.519 48.4561 142.76 48.8496C143.005 49.2389 143.128 49.6473 143.128 50.0747C143.128 50.4725 143.02 50.847 142.804 51.1982C142.588 51.5495 142.263 51.833 141.827 52.0488C142.389 52.2139 142.821 52.4953 143.122 52.8931C143.426 53.2909 143.579 53.7606 143.579 54.3022C143.579 54.7381 143.486 55.1444 143.299 55.521C143.117 55.8934 142.891 56.1812 142.62 56.3843C142.349 56.5874 142.009 56.7419 141.598 56.8477C141.192 56.9492 140.693 57 140.1 57H136.552ZM137.783 51.6045H139.795C140.341 51.6045 140.733 51.5685 140.97 51.4966C141.283 51.4035 141.518 51.249 141.674 51.0332C141.835 50.8174 141.916 50.5465 141.916 50.2207C141.916 49.9118 141.841 49.641 141.693 49.4082C141.545 49.1712 141.334 49.0104 141.059 48.9258C140.784 48.8369 140.312 48.7925 139.643 48.7925H137.783V51.6045ZM137.783 55.9019H140.1C140.498 55.9019 140.777 55.887 140.938 55.8574C141.222 55.8066 141.458 55.722 141.649 55.6035C141.839 55.485 141.996 55.3136 142.119 55.0894C142.241 54.8608 142.303 54.5985 142.303 54.3022C142.303 53.9552 142.214 53.6548 142.036 53.4009C141.858 53.1427 141.611 52.9629 141.293 52.8613C140.98 52.7555 140.528 52.7026 139.935 52.7026H137.783V55.9019ZM146.002 53.6294C146.002 52.381 146.349 51.4564 147.043 50.8555C147.623 50.3561 148.33 50.1064 149.163 50.1064C150.09 50.1064 150.848 50.4111 151.436 51.0205C152.024 51.6257 152.318 52.4635 152.318 53.5342C152.318 54.4017 152.187 55.0851 151.925 55.5845C151.666 56.0796 151.288 56.4647 150.788 56.7397C150.293 57.0148 149.752 57.1523 149.163 57.1523C148.22 57.1523 147.456 56.8498 146.872 56.2446C146.292 55.6395 146.002 54.7677 146.002 53.6294ZM147.176 53.6294C147.176 54.4927 147.365 55.1401 147.741 55.5718C148.118 55.9992 148.592 56.2129 149.163 56.2129C149.73 56.2129 150.202 55.9971 150.579 55.5654C150.955 55.1338 151.144 54.4757 151.144 53.5913C151.144 52.7576 150.953 52.1271 150.572 51.6997C150.196 51.2681 149.726 51.0522 149.163 51.0522C148.592 51.0522 148.118 51.266 147.741 51.6934C147.365 52.1208 147.176 52.7661 147.176 53.6294ZM154.507 54.9878L155.637 54.8101C155.7 55.2629 155.876 55.6099 156.163 55.8511C156.455 56.0923 156.862 56.2129 157.382 56.2129C157.907 56.2129 158.296 56.1071 158.55 55.8955C158.804 55.6797 158.931 55.4279 158.931 55.1401C158.931 54.882 158.819 54.6789 158.595 54.5308C158.438 54.4292 158.049 54.3001 157.427 54.1436C156.589 53.932 156.007 53.75 155.681 53.5977C155.359 53.4411 155.114 53.2274 154.945 52.9565C154.78 52.6815 154.697 52.3789 154.697 52.0488C154.697 51.7484 154.765 51.4712 154.9 51.2173C155.04 50.9591 155.228 50.7454 155.465 50.5762C155.643 50.445 155.884 50.335 156.189 50.2461C156.498 50.153 156.828 50.1064 157.179 50.1064C157.708 50.1064 158.171 50.1826 158.569 50.335C158.971 50.4873 159.267 50.6947 159.458 50.957C159.648 51.2152 159.78 51.5622 159.851 51.998L158.734 52.1504C158.684 51.8034 158.535 51.5326 158.29 51.3379C158.049 51.1432 157.706 51.0459 157.262 51.0459C156.737 51.0459 156.362 51.1326 156.138 51.3062C155.914 51.4797 155.802 51.6828 155.802 51.9155C155.802 52.0636 155.848 52.1969 155.941 52.3154C156.034 52.4382 156.18 52.5397 156.379 52.6201C156.494 52.6624 156.83 52.7598 157.389 52.9121C158.197 53.1279 158.76 53.3057 159.077 53.4453C159.399 53.5807 159.65 53.7796 159.832 54.042C160.014 54.3044 160.105 54.6302 160.105 55.0195C160.105 55.4004 159.993 55.7601 159.769 56.0986C159.549 56.4329 159.229 56.6932 158.81 56.8794C158.392 57.0614 157.918 57.1523 157.389 57.1523C156.513 57.1523 155.844 56.9704 155.383 56.6064C154.926 56.2425 154.634 55.703 154.507 54.9878ZM165.258 55.978L165.423 56.9873C165.102 57.055 164.814 57.0889 164.56 57.0889C164.145 57.0889 163.824 57.0233 163.595 56.8921C163.367 56.7609 163.206 56.5895 163.113 56.3779C163.02 56.1621 162.973 55.7114 162.973 55.0259V51.1475H162.135V50.2588H162.973V48.5894L164.109 47.9038V50.2588H165.258V51.1475H164.109V55.0894C164.109 55.4152 164.129 55.6247 164.167 55.7178C164.209 55.8109 164.275 55.8849 164.363 55.9399C164.456 55.995 164.588 56.0225 164.757 56.0225C164.884 56.0225 165.051 56.0076 165.258 55.978ZM167.257 53.6294C167.257 52.381 167.604 51.4564 168.298 50.8555C168.877 50.3561 169.584 50.1064 170.418 50.1064C171.345 50.1064 172.102 50.4111 172.69 51.0205C173.278 51.6257 173.573 52.4635 173.573 53.5342C173.573 54.4017 173.441 55.0851 173.179 55.5845C172.921 56.0796 172.542 56.4647 172.043 56.7397C171.548 57.0148 171.006 57.1523 170.418 57.1523C169.474 57.1523 168.71 56.8498 168.126 56.2446C167.547 55.6395 167.257 54.7677 167.257 53.6294ZM168.431 53.6294C168.431 54.4927 168.619 55.1401 168.996 55.5718C169.373 55.9992 169.846 56.2129 170.418 56.2129C170.985 56.2129 171.457 55.9971 171.833 55.5654C172.21 55.1338 172.398 54.4757 172.398 53.5913C172.398 52.7576 172.208 52.1271 171.827 51.6997C171.45 51.2681 170.981 51.0522 170.418 51.0522C169.846 51.0522 169.373 51.266 168.996 51.6934C168.619 52.1208 168.431 52.7661 168.431 53.6294ZM176.218 57V50.2588H177.247V51.2173C177.742 50.4767 178.457 50.1064 179.392 50.1064C179.798 50.1064 180.171 50.1805 180.509 50.3286C180.852 50.4725 181.108 50.6629 181.277 50.8999C181.447 51.1369 181.565 51.4183 181.633 51.7441C181.675 51.9557 181.696 52.326 181.696 52.855V57H180.554V52.8994C180.554 52.4339 180.509 52.0869 180.42 51.8584C180.332 51.6257 180.173 51.4416 179.944 51.3062C179.72 51.1665 179.456 51.0967 179.151 51.0967C178.664 51.0967 178.243 51.2511 177.888 51.5601C177.536 51.869 177.361 52.4551 177.361 53.3184V57H176.218Z" fill="white"/>
<path d="M11.2969 29.5156C9.97396 29.5156 8.70312 29.2552 7.48438 28.7344C6.27604 28.2135 5.20312 27.4635 4.26562 26.4844C3.33854 25.5052 2.59896 24.3125 2.04688 22.9062C1.49479 21.4896 1.21875 19.8958 1.21875 18.125C1.21875 16.3542 1.48958 14.75 2.03125 13.3125C2.57292 11.8646 3.32292 10.6198 4.28125 9.57812C5.22917 8.54688 6.34896 7.75 7.64062 7.1875C8.93229 6.625 10.3125 6.34375 11.7812 6.34375C12.875 6.34375 13.8646 6.47917 14.75 6.75C15.6354 7.02083 16.4792 7.40104 17.2812 7.89062L17.9219 6.82812H19.1719L19.3125 14.7344H18.0312C17.8646 13.9635 17.6146 13.1302 17.2812 12.2344C16.9479 11.3281 16.5573 10.5625 16.1094 9.9375C15.6094 9.22917 15.0156 8.67708 14.3281 8.28125C13.6406 7.875 12.8542 7.67188 11.9688 7.67188C10.9583 7.67188 10.0156 7.89583 9.14062 8.34375C8.27604 8.79167 7.52604 9.45312 6.89062 10.3281C6.28646 11.1719 5.8125 12.2448 5.46875 13.5469C5.125 14.849 4.95312 16.3021 4.95312 17.9062C4.95312 19.3229 5.13021 20.625 5.48438 21.8125C5.84896 22.9896 6.36458 24.026 7.03125 24.9219C7.69792 25.8073 8.48438 26.5 9.39062 27C10.3073 27.5 11.3281 27.75 12.4531 27.75C13.2969 27.75 14.0729 27.6198 14.7812 27.3594C15.4896 27.0885 16.1042 26.7344 16.625 26.2969C17.1458 25.8385 17.6042 25.3177 18 24.7344C18.3958 24.151 18.7188 23.5156 18.9688 22.8281L20.1406 23.3906C19.2448 25.5885 18.0573 27.1615 16.5781 28.1094C15.099 29.0469 13.3385 29.5156 11.2969 29.5156ZM38.6231 21.1406C38.6231 22.224 38.4513 23.2917 38.1075 24.3438C37.7638 25.3854 37.2742 26.2708 36.6388 27C35.92 27.8333 35.0867 28.4531 34.1388 28.8594C33.1908 29.2656 32.1283 29.4688 30.9513 29.4688C29.9721 29.4688 29.0398 29.2865 28.1544 28.9219C27.269 28.5469 26.4825 28.0052 25.795 27.2969C25.1179 26.599 24.5763 25.75 24.17 24.75C23.7742 23.7396 23.5763 22.6094 23.5763 21.3594C23.5763 18.9531 24.2742 16.9844 25.67 15.4531C27.0763 13.9219 28.9148 13.1562 31.1856 13.1562C33.3419 13.1562 35.1179 13.8854 36.5138 15.3438C37.92 16.7917 38.6231 18.724 38.6231 21.1406ZM35.3888 21.1719C35.3888 20.3906 35.3106 19.5677 35.1544 18.7031C34.9981 17.8281 34.7638 17.0885 34.4513 16.4844C34.1179 15.8385 33.6804 15.3229 33.1388 14.9375C32.5971 14.5417 31.9356 14.3438 31.1544 14.3438C30.3523 14.3438 29.6648 14.5417 29.0919 14.9375C28.5294 15.3333 28.071 15.875 27.7169 16.5625C27.3835 17.1979 27.1492 17.9219 27.0138 18.7344C26.8783 19.5469 26.8106 20.3333 26.8106 21.0938C26.8106 22.0938 26.8888 23.0208 27.045 23.875C27.2117 24.7188 27.4721 25.474 27.8263 26.1406C28.1804 26.8073 28.6231 27.3333 29.1544 27.7188C29.696 28.0938 30.3627 28.2812 31.1544 28.2812C32.4565 28.2812 33.4877 27.651 34.2481 26.3906C35.0085 25.1302 35.3888 23.3906 35.3888 21.1719ZM54.9806 29H42.5119V28.1719L51.2306 14.8594H49.0744C48.1681 14.8594 47.4598 14.875 46.9494 14.9062C46.439 14.9375 45.9702 15.0417 45.5431 15.2188C45.2515 15.3333 44.9754 15.6615 44.715 16.2031C44.465 16.7448 44.2463 17.4531 44.0588 18.3281H43.1056V13.5938H54.8869V14.2344L46.0275 27.7344C46.4025 27.7448 46.814 27.7552 47.2619 27.7656C47.7098 27.7656 48.1942 27.7656 48.715 27.7656C49.1317 27.7656 49.564 27.7604 50.0119 27.75C50.4702 27.7396 51.0535 27.7135 51.7619 27.6719C52.1785 27.651 52.491 27.5104 52.6994 27.25C52.9181 26.9896 53.0848 26.6927 53.1994 26.3594C53.314 26.0573 53.4494 25.6406 53.6056 25.1094C53.7723 24.5781 53.9181 24.0625 54.0431 23.5625H54.9806V29ZM57.7444 34.0312C57.7444 33.5104 57.885 33.0833 58.1662 32.75C58.4579 32.4271 58.8173 32.2656 59.2444 32.2656C59.5777 32.2656 59.8642 32.3281 60.1037 32.4531C60.3433 32.5781 60.5569 32.7396 60.7444 32.9375C60.9006 33.0938 61.0673 33.3073 61.2444 33.5781C61.4215 33.849 61.5621 34.0729 61.6662 34.25C62.1871 33.9688 62.8069 33.2344 63.5256 32.0469C64.2548 30.8594 64.7808 29.8177 65.1037 28.9219C64.1142 26.4531 63.2183 24.2448 62.4162 22.2969C61.6142 20.349 60.7756 18.3333 59.9006 16.25C59.7027 15.7708 59.3694 15.401 58.9006 15.1406C58.4319 14.8698 57.9631 14.6979 57.4944 14.625V13.5938H64.5256V14.6875C64.2131 14.6979 63.8381 14.7656 63.4006 14.8906C62.9631 15.0052 62.7444 15.1406 62.7444 15.2969C62.7444 15.3594 62.7652 15.4635 62.8069 15.6094C62.859 15.7552 62.9162 15.9062 62.9787 16.0625C63.3746 17.0938 63.9787 18.5833 64.7912 20.5312C65.6037 22.4688 66.234 24.0208 66.6819 25.1875C67.1506 24.0729 67.635 22.9219 68.135 21.7344C68.6454 20.5365 69.2131 19.125 69.8381 17.5C69.911 17.3021 70.0152 17.0312 70.1506 16.6875C70.286 16.3333 70.3537 16.0312 70.3537 15.7812C70.3537 15.5104 70.1142 15.2604 69.635 15.0312C69.1662 14.7917 68.7183 14.6458 68.2912 14.5938V13.5938H74.01V14.5625C73.6975 14.6146 73.286 14.7969 72.7756 15.1094C72.2652 15.4115 71.885 15.8438 71.635 16.4062C70.3954 19.2812 69.2912 21.901 68.3225 24.2656C67.3642 26.6302 66.635 28.3698 66.135 29.4844C65.4787 30.9427 64.8902 32.0781 64.3694 32.8906C63.859 33.7135 63.359 34.3594 62.8694 34.8281C62.3902 35.2656 61.9527 35.5573 61.5569 35.7031C61.1715 35.8594 60.7704 35.9375 60.3537 35.9375C59.5412 35.9375 58.9006 35.7448 58.4319 35.3594C57.9735 34.974 57.7444 34.5312 57.7444 34.0312ZM109.584 29H100.381V27.8906C100.631 27.8698 100.991 27.8385 101.459 27.7969C101.939 27.7552 102.267 27.6927 102.444 27.6094C102.756 27.4844 102.985 27.2969 103.131 27.0469C103.277 26.7865 103.35 26.4531 103.35 26.0469V18.1562H92.9281V25.875C92.9281 26.2396 92.9854 26.5469 93.1 26.7969C93.225 27.0469 93.4646 27.2656 93.8187 27.4531C93.9958 27.5469 94.3083 27.6406 94.7562 27.7344C95.2146 27.8281 95.574 27.8802 95.8344 27.8906V29H86.6312V27.8906C86.8812 27.8698 87.2406 27.8385 87.7094 27.7969C88.1885 27.7552 88.5167 27.6927 88.6937 27.6094C89.0062 27.4844 89.2354 27.2969 89.3812 27.0469C89.5271 26.7865 89.6 26.4531 89.6 26.0469V10.0469C89.6 9.71354 89.5323 9.41146 89.3969 9.14062C89.2615 8.85938 89.0271 8.64062 88.6937 8.48438C88.4125 8.34896 88.0687 8.22917 87.6625 8.125C87.2667 8.02083 86.9229 7.95833 86.6312 7.9375V6.82812H95.8344V7.9375C95.5427 7.94792 95.1833 7.99479 94.7562 8.07812C94.3396 8.16146 94.0271 8.23958 93.8187 8.3125C93.4646 8.4375 93.225 8.64583 93.1 8.9375C92.9854 9.22917 92.9281 9.54688 92.9281 9.89062V16.7656H103.35V10.0469C103.35 9.71354 103.282 9.41146 103.147 9.14062C103.011 8.85938 102.777 8.64062 102.444 8.48438C102.162 8.34896 101.819 8.22917 101.412 8.125C101.017 8.02083 100.673 7.95833 100.381 7.9375V6.82812H109.584V7.9375C109.293 7.94792 108.933 7.99479 108.506 8.07812C108.09 8.16146 107.777 8.23958 107.569 8.3125C107.215 8.4375 106.975 8.64583 106.85 8.9375C106.735 9.22917 106.678 9.54688 106.678 9.89062V25.875C106.678 26.2396 106.735 26.5469 106.85 26.7969C106.975 27.0469 107.215 27.2656 107.569 27.4531C107.746 27.5469 108.058 27.6406 108.506 27.7344C108.965 27.8281 109.324 27.8802 109.584 27.8906V29ZM129.254 21.1406C129.254 22.224 129.082 23.2917 128.739 24.3438C128.395 25.3854 127.905 26.2708 127.27 27C126.551 27.8333 125.718 28.4531 124.77 28.8594C123.822 29.2656 122.76 29.4688 121.582 29.4688C120.603 29.4688 119.671 29.2865 118.786 28.9219C117.9 28.5469 117.114 28.0052 116.426 27.2969C115.749 26.599 115.207 25.75 114.801 24.75C114.405 23.7396 114.207 22.6094 114.207 21.3594C114.207 18.9531 114.905 16.9844 116.301 15.4531C117.707 13.9219 119.546 13.1562 121.817 13.1562C123.973 13.1562 125.749 13.8854 127.145 15.3438C128.551 16.7917 129.254 18.724 129.254 21.1406ZM126.02 21.1719C126.02 20.3906 125.942 19.5677 125.786 18.7031C125.629 17.8281 125.395 17.0885 125.082 16.4844C124.749 15.8385 124.312 15.3229 123.77 14.9375C123.228 14.5417 122.567 14.3438 121.786 14.3438C120.984 14.3438 120.296 14.5417 119.723 14.9375C119.161 15.3333 118.702 15.875 118.348 16.5625C118.015 17.1979 117.78 17.9219 117.645 18.7344C117.51 19.5469 117.442 20.3333 117.442 21.0938C117.442 22.0938 117.52 23.0208 117.676 23.875C117.843 24.7188 118.103 25.474 118.457 26.1406C118.812 26.8073 119.254 27.3333 119.786 27.7188C120.327 28.0938 120.994 28.2812 121.786 28.2812C123.088 28.2812 124.119 27.651 124.879 26.3906C125.64 25.1302 126.02 23.3906 126.02 21.1719ZM149.924 28.7188L144.909 29.0625L144.674 28.8438V26.8906H144.581C144.331 27.151 144.049 27.4323 143.737 27.7344C143.424 28.026 143.065 28.2917 142.659 28.5312C142.19 28.8125 141.737 29.026 141.299 29.1719C140.862 29.3177 140.242 29.3906 139.44 29.3906C138.075 29.3906 137.034 28.9479 136.315 28.0625C135.607 27.1667 135.253 25.8698 135.253 24.1719V16.7969C135.253 16.4219 135.18 16.1094 135.034 15.8594C134.898 15.599 134.695 15.375 134.424 15.1875C134.237 15.0625 134.003 14.974 133.721 14.9219C133.44 14.8594 133.143 14.8177 132.831 14.7969V13.7812L137.971 13.4062L138.206 13.625V24.3281C138.206 25.4427 138.456 26.2812 138.956 26.8438C139.456 27.4062 140.055 27.6875 140.753 27.6875C141.325 27.6875 141.836 27.599 142.284 27.4219C142.732 27.2448 143.107 27.0365 143.409 26.7969C143.69 26.5781 143.935 26.349 144.143 26.1094C144.362 25.8594 144.529 25.6302 144.643 25.4219V16.6875C144.643 16.3438 144.57 16.0417 144.424 15.7812C144.279 15.5104 144.075 15.2812 143.815 15.0938C143.628 14.9688 143.346 14.8958 142.971 14.875C142.607 14.8438 142.195 14.8177 141.737 14.7969V13.7812L147.331 13.4062L147.565 13.625V25.8594C147.565 26.2135 147.638 26.5156 147.784 26.7656C147.93 27.0156 148.133 27.2292 148.393 27.4062C148.581 27.5208 148.805 27.599 149.065 27.6406C149.325 27.6719 149.612 27.6927 149.924 27.7031V28.7188ZM163.907 21.4531C164.334 21.8281 164.662 22.2604 164.891 22.75C165.12 23.2396 165.235 23.8385 165.235 24.5469C165.235 25.974 164.699 27.1406 163.626 28.0469C162.563 28.9531 161.183 29.4062 159.485 29.4062C158.589 29.4062 157.761 29.2448 157.001 28.9219C156.251 28.599 155.714 28.3021 155.391 28.0312L155.079 29.0469H153.907L153.751 23.6875H154.829C154.912 24.0938 155.089 24.5677 155.36 25.1094C155.631 25.651 155.959 26.1406 156.344 26.5781C156.751 27.0365 157.235 27.4219 157.798 27.7344C158.37 28.0469 159.011 28.2031 159.719 28.2031C160.719 28.2031 161.49 27.9792 162.032 27.5312C162.574 27.0729 162.844 26.4219 162.844 25.5781C162.844 25.1406 162.756 24.7656 162.579 24.4531C162.412 24.1302 162.162 23.849 161.829 23.6094C161.485 23.3698 161.063 23.1562 160.563 22.9688C160.063 22.7708 159.506 22.5781 158.891 22.3906C158.402 22.2448 157.855 22.0469 157.251 21.7969C156.657 21.5365 156.146 21.2344 155.719 20.8906C155.261 20.526 154.886 20.0781 154.594 19.5469C154.303 19.0156 154.157 18.3906 154.157 17.6719C154.157 16.4115 154.626 15.3438 155.563 14.4688C156.501 13.5938 157.756 13.1562 159.329 13.1562C159.933 13.1562 160.548 13.2344 161.173 13.3906C161.808 13.5469 162.324 13.7344 162.719 13.9531L163.079 13.1406H164.204L164.438 18.0938H163.36C163.141 16.9896 162.667 16.0938 161.938 15.4062C161.219 14.7083 160.339 14.3594 159.298 14.3594C158.443 14.3594 157.771 14.5729 157.282 15C156.792 15.4271 156.548 15.9427 156.548 16.5469C156.548 17.0156 156.626 17.4062 156.782 17.7188C156.949 18.0312 157.193 18.2969 157.516 18.5156C157.829 18.724 158.219 18.9219 158.688 19.1094C159.167 19.2865 159.756 19.4896 160.454 19.7188C161.141 19.9375 161.787 20.1927 162.391 20.4844C163.006 20.776 163.511 21.099 163.907 21.4531ZM183.186 25.375C182.54 26.6042 181.676 27.5833 180.592 28.3125C179.509 29.0417 178.264 29.4062 176.858 29.4062C175.619 29.4062 174.53 29.1875 173.592 28.75C172.665 28.3125 171.9 27.7188 171.296 26.9688C170.691 26.2188 170.238 25.3438 169.936 24.3438C169.645 23.3438 169.499 22.2865 169.499 21.1719C169.499 20.1719 169.655 19.1927 169.967 18.2344C170.29 17.2656 170.759 16.3958 171.374 15.625C171.967 14.8854 172.702 14.2917 173.577 13.8438C174.462 13.3854 175.452 13.1562 176.546 13.1562C177.671 13.1562 178.634 13.3333 179.436 13.6875C180.238 14.0417 180.889 14.526 181.389 15.1406C181.869 15.724 182.223 16.4115 182.452 17.2031C182.691 17.9948 182.811 18.8542 182.811 19.7812V20.8125H172.608C172.608 21.8229 172.702 22.7396 172.889 23.5625C173.087 24.3854 173.395 25.1094 173.811 25.7344C174.217 26.3385 174.749 26.8177 175.405 27.1719C176.061 27.5156 176.842 27.6875 177.749 27.6875C178.676 27.6875 179.473 27.474 180.139 27.0469C180.816 26.6094 181.467 25.8281 182.092 24.7031L183.186 25.375ZM179.733 19.5C179.733 18.9167 179.681 18.2917 179.577 17.625C179.483 16.9583 179.327 16.401 179.108 15.9531C178.869 15.474 178.54 15.0833 178.124 14.7812C177.707 14.4792 177.171 14.3281 176.514 14.3281C175.421 14.3281 174.509 14.7865 173.78 15.7031C173.061 16.6094 172.671 17.875 172.608 19.5H179.733Z" fill="#F1CDB3"/>
</svg>
